Coordinates
version=1
nRows=65
nColumns=12
inDegrees=yes

Units are S.I. units (second, meters, Newtons, ...)
Angles are in degrees

endheader
time	SC_y	SC_z	SC_x	AC_y	AC_z	AC_x	GH_y	GH_z	GH_yy	EL_x	PS_y
       0.0               -36.1          33.88          12.83          59.69           1.22         -6.164         -104.3          40.22          151.9          16.05          139.5
   0.01107               -36.1          33.88          12.84          59.69          1.218         -6.165         -104.3          40.22          151.9          16.05          139.5
   0.02213               -36.1          33.88          12.85          59.69          1.215         -6.166         -104.3          40.23          151.9          16.06          139.5
    0.0332              -36.09          33.88          12.86          59.69          1.213         -6.167         -104.3          40.23          151.9          16.06          139.5
   0.04427              -36.09          33.88          12.87          59.68           1.21         -6.168         -104.3          40.24          151.9          16.07          139.5
   0.05533              -36.08          33.88          12.88          59.68          1.207          -6.17         -104.3          40.24          151.9          16.08          139.5
    0.0664              -36.08          33.88          12.89          59.68          1.204         -6.171         -104.2          40.25          151.9          16.08          139.5
   0.07746              -36.08          33.88           12.9          59.67            1.2         -6.173         -104.2          40.26          151.9          16.09          139.5
   0.08853              -36.07          33.87          12.91          59.67          1.196         -6.174         -104.2          40.26          151.9           16.1          139.5
    0.0996              -36.06          33.87          12.92          59.67          1.193         -6.176         -104.2          40.27          151.9          16.11          139.5
    0.1107              -36.06          33.87          12.94          59.66          1.188         -6.178         -104.2          40.28          151.8          16.12          139.5
    0.1217              -36.05          33.87          12.95          59.66          1.184          -6.18         -104.2          40.29          151.8          16.13          139.5
    0.1328              -36.05          33.87          12.97          59.65          1.179         -6.182         -104.2           40.3          151.8          16.14          139.5
    0.1439              -36.04          33.87          12.99          59.65          1.174         -6.184         -104.2          40.31          151.8          16.15          139.5
    0.1549              -36.03          33.86          13.01          59.64          1.168         -6.187         -104.1          40.32          151.8          16.16          139.5
     0.166              -36.02          33.86          13.03          59.63          1.162         -6.189         -104.1          40.33          151.7          16.18          139.5
    0.1771              -36.01          33.86          13.05          59.63          1.155         -6.192         -104.1          40.34          151.7          16.19          139.5
    0.1881               -36.0          33.86          13.08          59.62          1.147         -6.196         -104.1          40.36          151.7          16.21          139.5
    0.1992              -35.99          33.85           13.1          59.61          1.139         -6.199         -104.1          40.37          151.7          16.23          139.5
    0.2103              -35.98          33.85          13.13           59.6           1.13         -6.203         -104.0          40.39          151.6          16.25          139.5
    0.2213              -35.96          33.85          13.17          59.59          1.121         -6.207         -104.0          40.41          151.6          16.27          139.5
    0.2324              -35.95          33.84           13.2          59.58           1.11         -6.212         -104.0          40.43          151.6          16.29          139.5
    0.2435              -35.93          33.84          13.24          59.57          1.098         -6.217         -103.9          40.45          151.5          16.32          139.5
    0.2545              -35.92          33.84          13.29          59.55          1.085         -6.223         -103.9          40.48          151.5          16.35          139.5
    0.2656               -35.9          33.83          13.33          59.54          1.071         -6.229         -103.9           40.5          151.4          16.38          139.5
    0.2767              -35.87          33.83          13.39          59.52          1.055         -6.236         -103.8          40.53          151.4          16.42          139.5
    0.2877              -35.85          33.82          13.45           59.5          1.036         -6.244         -103.8          40.57          151.3          16.46          139.5
    0.2988              -35.82          33.81          13.52          59.48          1.016         -6.253         -103.7          40.61          151.2           16.5          139.6
    0.3099              -35.79           33.8           13.6          59.46          0.993         -6.263         -103.6          40.65          151.2          16.55          139.6
    0.3209              -35.75           33.8          13.68          59.43         0.9669         -6.275         -103.6           40.7          151.1          16.61          139.6
     0.332              -35.71          33.79          13.78           59.4          0.937         -6.288         -103.5          40.76          151.0          16.68          139.6
    0.3431              -35.66          33.77           13.9          59.36         0.9027         -6.303         -103.4          40.83          150.8          16.75          139.6
    0.3541              -35.61          33.76          14.03          59.32         0.8631          -6.32         -103.3           40.9          150.7          16.84          139.6
    0.3652              -35.54          33.74          14.19          59.28         0.8171          -6.34         -103.1          40.99          150.5          16.95          139.6
    0.3763              -35.47          33.73          14.37          59.22         0.7633         -6.364         -103.0          41.09          150.4          17.07          139.6
    0.3873              -35.38           33.7          14.58          59.15         0.6999         -6.391         -102.8          41.21          150.1          17.21          139.6
    0.3984              -35.27          33.68          14.84          59.07         0.6245         -6.424         -102.6          41.36          149.9          17.38          139.7
    0.4095              -35.15          33.65          15.14          58.98         0.5341         -6.464         -102.3          41.53          149.6          17.58          139.7
    0.4205               -35.0          33.61          15.51          58.87         0.4248         -6.511         -102.0          41.74          149.2          17.82          139.7
    0.4316              -34.81          33.56          15.96          58.73         0.2913          -6.57         -101.6           42.0          148.7          18.12          139.7
    0.4427              -34.58          33.51          16.51          58.56         0.1264         -6.642         -101.2          42.31          148.1          18.49          139.8
    0.4537              -34.29          33.44           17.2          58.34       -0.07909         -6.732         -100.6          42.71          147.4          18.95          139.8
    0.4648              -33.93          33.35          18.07          58.08         -0.338         -6.845         -99.85          43.21          146.5          19.52          139.9
    0.4759              -33.48          33.24          19.18          57.73        -0.6672         -6.989         -98.91          43.84          145.4          20.26          140.0
    0.4869              -32.89          33.09           20.6           57.3         -1.088         -7.173         -97.71          44.65          143.9           21.2          140.1
     0.498              -32.14          32.91          22.42          56.73         -1.629         -7.409         -96.17          45.68          142.0          22.41          140.2
    0.5091              -31.18          32.67          24.74          56.02          -2.32         -7.711          -94.2          47.01          139.6          23.95          140.4
    0.5201              -29.97          32.37          27.66          55.11         -3.188         -8.091         -91.73          48.67          136.6          25.88          140.6
    0.5312              -28.49          32.01          31.22          54.02         -4.246         -8.553         -88.71           50.7          132.9          28.25          140.9
    0.5423              -26.79          31.59          35.35          52.74         -5.473         -9.089         -85.22          53.06          128.6          30.98          141.2
    0.5533              -24.94          31.14          39.82          51.36         -6.801          -9.67         -81.43           55.6          123.9          33.95          141.6
    0.5644              -23.09          30.68          44.29          49.98         -8.129         -10.25         -77.65          58.15          119.3          36.91          141.9
    0.5755              -21.38          30.26          48.41          48.71         -9.355         -10.79         -74.15           60.5          115.0          39.65          142.2
    0.5865              -19.91           29.9          51.97          47.61         -10.41         -11.25         -71.14          62.53          111.3          42.01          142.5
    0.5976               -18.7           29.6           54.9          46.71         -11.28         -11.63         -68.66           64.2          108.3          43.95          142.7
    0.6087              -17.74          29.37          57.22          45.99         -11.97         -11.93         -66.69          65.52          105.9          45.49          142.9
    0.6197              -16.99          29.18          59.04          45.43         -12.51         -12.17         -65.15          66.56          104.0           46.7          143.1
    0.6308               -16.4          29.04          60.46          44.99         -12.93         -12.35         -63.95          67.37          102.5          47.64          143.2
    0.6418              -15.94          28.93          61.56          44.65         -13.26         -12.49         -63.01           68.0          101.4          48.37          143.3
    0.6529              -15.58          28.84          62.43          44.38         -13.52         -12.61         -62.28           68.5          100.5          48.95          143.3
     0.664               -15.3          28.77          63.13          44.17         -13.73          -12.7         -61.69          68.89          99.77          49.41          143.4
     0.675              -15.07          28.71          63.68          43.99         -13.89         -12.77         -61.22          69.21          99.19          49.77          143.4
    0.6861              -14.88          28.66          64.13          43.86         -14.03         -12.83         -60.84          69.46          98.72          50.07          143.5
    0.6972              -14.73          28.63           64.5          43.74         -14.14         -12.88         -60.53          69.67          98.34          50.32          143.5
    0.7082               -14.6           28.6           64.8          43.65         -14.23         -12.92         -60.27          69.85          98.03          50.52          143.5
